
        <svg xmlns="http://www.w3.org/2000/svg" xmlns:xlink="http://www.w3.org/1999/xlink" version="1.1" width="3160.142174154045" height="1205.7399355522411" viewBox="0 0 3160.142174154045 1205.7399355522411">
			
			<g transform="scale(8.007108707702244) translate(10, 10)">
				<defs id="SvgjsDefs1076"/><g id="SvgjsG1077" featureKey="nYIUkx-0" transform="matrix(1.1627816953626262,0,0,1.1627816953626262,-1.8796722577365115,4.5315385092186276)" fill="#fff"><g xmlns="http://www.w3.org/2000/svg"><g><path fill-rule="evenodd" clip-rule="evenodd" d="M37.094,26.532c8.682-0.118,11.859-5.741,13.2-13.2    c-0.266-1.109-1.714-1.036-1.237-2.887c0.682-0.602,1.151-0.876,2.269-0.619c1.038,1.202,0.298,3.145,0,4.537    c-1.634,7.623-5.793,14.504-16.088,12.994c1.448,2.671,2.802,4.979,2.888,8.662c0.149,6.431-3.228,12.097-7.219,16.087    c-3.96,3.96-9.394,7.381-16.087,7.219c-7.438-0.18-13.041-5.266-13.2-13.2C1.504,40.382,4.31,35.018,7.188,31.688    c4.428-5.124,14.506-11.797,23.719-7.425c0.897,0.426,2.227,1.771,3.3,1.856c2.058,0.164,5.426-2.358,6.806-4.125    c2.578-3.301,2.743-8.61,1.444-13.2c-0.501-0.764-1.864-0.376-2.063-1.65c-0.132-0.846,0.897-2.354,2.269-1.65    c0.895,0.459,1.869,6.592,1.856,8.869C44.484,20.581,40.839,24.587,37.094,26.532z M18.944,32.307    c-1.15,4.996,6.015,4.675,5.775,0.619c-0.109-1.847-1.178-2.952-3.506-2.475C19.771,30.746,19.083,31.698,18.944,32.307z"/><path fill-rule="evenodd" clip-rule="evenodd" d="M95.05,27.769c-14.16-9.307-38.764-5.076-45.994,7.219    c0.499-2.403,1.872-4.779,3.299-7.012c4.317-6.751,11.514-14.115,21.656-14.85C84.864,12.339,91.754,19.855,95.05,27.769z"/><path fill-rule="evenodd" clip-rule="evenodd" d="M87.418,71.494c-0.114-10.389-5.282-17.452-11.344-23.513    c-6.513-6.513-16.751-12.137-27.843-9.075c-0.87,0.035,0.003-0.317,0-0.619c7.003-5.714,15.332-11.902,27.225-11.962    c12.203-0.063,21.792,7.351,22.688,18.975C98.962,55.93,93.342,66.142,87.418,71.494z"/><path fill-rule="evenodd" clip-rule="evenodd" d="M52.975,42.619c0.771,0.125-0.314,0.821-0.619,1.237    c-5.28,7.235-11.419,14.906-18.768,20.213c-0.777-1.768-0.838-4.25-0.825-6.807c4.137-3.563,7.602-7.798,9.281-13.818    C44.964,42.516,49.413,41.621,52.975,42.619z"/><path fill-rule="evenodd" clip-rule="evenodd" d="M60.193,44.682c2.78,1.139,5.157,2.68,7.425,4.331    c-7.716,10.983-16.427,20.973-27.637,28.463c-1.271-1.548-2.507-3.131-3.3-5.156C46.61,65.198,55.675,57.213,60.193,44.682z"/><path fill-rule="evenodd" clip-rule="evenodd" d="M72.568,53.551c2.364,1.966,3.934,4.729,5.775,7.218    c-7.53,10.414-15.438,20.449-26.606,27.226c-2.238-1.406-4.26-3.027-6.394-4.538C57.194,76.264,67.255,67.281,72.568,53.551z"/><path fill-rule="evenodd" clip-rule="evenodd" d="M81.644,69.638c1.15,1.996,1.231,5.982,0.825,8.869    c-1.061,1.136-2.343,1.897-3.507,2.887c-3.222,2.74-6.344,5.979-8.25,10.313c-2.721,0.574-6.337,0.52-9.075,0    C69.601,85.645,76.797,78.816,81.644,69.638z"/><path fill-rule="evenodd" clip-rule="evenodd" d="M83.293,83.25c-0.2,1.473-1.36,5.563,0,7.425    c-2.467-0.196-5.818-0.074-7.837,1.237C77.57,88.527,80.372,85.829,83.293,83.25z"/></g></g></g><g id="SvgjsG1078" featureKey="PXhRQw-0" transform="matrix(6.709967867008794,0,0,6.709967867008794,137,-31.23383672044592)" fill="#fff"><path d="M3 20.28 c-1.18 0 -2.3 -0.56 -3 -1.52 l0.46 -0.34 c0.6 0.8 1.54 1.28 2.54 1.28 c1.7 0 3.1 -1.4 3.1 -3.12 c0 -1.78 -1.36 -3.08 -2.68 -4.36 c-1.28 -1.2 -2.58 -2.46 -2.58 -4.12 c0 -1.48 1.22 -2.7 2.7 -2.7 c0.86 0 1.68 0.42 2.2 1.12 l-0.48 0.34 c-0.4 -0.54 -1.04 -0.88 -1.72 -0.88 c-1.16 0 -2.12 0.96 -2.12 2.12 c0 1.4 1.16 2.52 2.4 3.7 c1.4 1.36 2.86 2.76 2.86 4.78 c0 2.04 -1.66 3.7 -3.68 3.7 z M8.96 18.94 c0.88 0.68 2.16 0.62 2.98 -0.2 l0.4 0.42 c-1.1 1.1 -2.9 1.1 -4.02 0 c-1.1 -1.1 -1.1 -2.9 0 -4.02 c1.04 -1.04 2.7 -1.1 3.8 -0.2 l0.02 0 c0.2 0.2 0.2 0.2 0.42 0.4 z M8.74 15.559999999999999 c-0.8 0.8 -0.88 2.08 -0.2 2.96 l3.18 -3.16 c-0.88 -0.68 -2.16 -0.62 -2.98 0.2 z M16.2 14.32 l0 0.58 c-1.24 0 -2.26 1 -2.26 2.26 l0 2.84 l-0.58 0 l0 -5.68 l0.58 0 l0 1.1 c0.52 -0.68 1.34 -1.1 2.26 -1.1 z M19.02 20 l-0.6 0 l-1.42 -5.68 l0.6 0 l1.12 4.46 l1.1 -4.46 l0.6 0 z M27.779999999999998 10.22 l1.16 0 l0 9.78 l-0.58 0 c-3.94 0 -7.14 -3.22 -7.14 -7.16 s3.2 -7.14 7.14 -7.14 l0.58 0 l0 0.58 l-0.58 0 c-3.62 0 -6.56 2.94 -6.56 6.56 s2.94 6.56 6.56 6.56 l0 -8.58 l-0.58 0 l0 -0.6 z M32.58 14.9 c-1.24 0 -2.26 1 -2.26 2.26 c0 1.24 1.02 2.24 2.26 2.24 s2.26 -1 2.26 -2.24 c0 -1.26 -1.02 -2.26 -2.26 -2.26 z M32.58 14.32 c1.56 0 2.84 1.26 2.84 2.84 c0 1.56 -1.28 2.84 -2.84 2.84 c-1.58 0 -2.84 -1.28 -2.84 -2.84 c0 -1.58 1.26 -2.84 2.84 -2.84 z"/></g><g id="SvgjsG1079" featureKey="mlRtrp-0" transform="matrix(1.0572378060259136,0,0,1.0572378060259136,141,109.31205947432878)" fill="#fff"><path d="M7.84 5.720000000000001 l1.92 0 l-1.86 14.28 l-1.98 0 l-1 -7.16 l-0.94 7.16 l-1.98 0 l-2 -14.28 l1.92 0 l1.04 7.36 l0.96 -7.36 l1.92 0 l1.04 7.36 z M20.544 12.46 l-2.76 0 l0 5.64 l2.78 0 l0 1.9 l-4.68 0 l0 -14.28 l4.68 0 l0 1.9 l-2.78 0 l0 2.94 l2.76 0 l0 1.9 z M38.552 20.12 c-1.52 0 -2.74 -1.24 -2.74 -2.74 l0 -2.18 l1.94 0 l0 2.18 c0 0.44 0.36 0.8 0.8 0.8 s0.78 -0.36 0.78 -0.8 l0 -1.9 l-3.52 -4.86 l0 -2.48 c0 -1.52 1.22 -2.76 2.74 -2.76 c1.5 0 2.72 1.24 2.72 2.76 l0 2.16 l-1.94 0 l0 -2.16 c0 -0.46 -0.34 -0.8 -0.78 -0.8 s-0.8 0.34 -0.8 0.8 l0 1.82 l3.52 4.86 l0 2.56 c0 1.5 -1.22 2.74 -2.72 2.74 z M52.056 12.46 l-2.76 0 l0 5.64 l2.78 0 l0 1.9 l-4.68 0 l0 -14.28 l4.68 0 l0 1.9 l-2.78 0 l0 2.94 l2.76 0 l0 1.9 z M63.68000000000001 20.04 l-2.04 0 l-1.1 -3.02 l-0.44 0 l0 3.02 l-1.9 0 l0 -14.32 l2.98 0 c1.32 0 2.38 1.06 2.38 2.38 l0 6.54 c0 0.86 -0.44 1.6 -1.12 2.02 z M60.1 7.619999999999999 l0 7.5 l1.08 0 c0.26 0 0.48 -0.22 0.48 -0.48 l0 -6.54 c0 -0.26 -0.22 -0.48 -0.48 -0.48 l-1.08 0 z M73.784 20 l-1.98 0 l-2 -14.28 l1.92 0 l1.04 7.36 l0.96 -7.36 l1.92 0 z M86.288 12.46 l-2.76 0 l0 5.64 l2.78 0 l0 1.9 l-4.68 0 l0 -14.28 l4.68 0 l0 1.9 l-2.78 0 l0 2.94 l2.76 0 l0 1.9 z M104.056 20.02 l-2.5 0 l0 -14.26 l2.5 0 c1.7 0 3.06 1.38 3.06 3.08 l0 8.1 c0 0.82 -0.32 1.6 -0.9 2.18 s-1.34 0.9 -2.16 0.9 z M103.456 7.68 l0 10.42 l0.6 0 c0.3 0 0.6 -0.12 0.82 -0.34 s0.34 -0.5 0.34 -0.82 l0 -8.1 c0 -0.64 -0.52 -1.16 -1.16 -1.16 l-0.6 0 z M115.14 5.68 l0 14.24 l-1.9 0 l0 -14.24 l1.9 0 z M125.964 10.62 l0 1.88 l-2.82 0 l0 7.46 l-1.88 0 l0 -14.24 l4.66 0 l0 1.9 l-2.78 0 l0 3 l2.82 0 z M136.78799999999998 10.62 l0 1.88 l-2.82 0 l0 7.46 l-1.88 0 l0 -14.24 l4.66 0 l0 1.9 l-2.78 0 l0 3 l2.82 0 z M147.572 12.46 l-2.76 0 l0 5.64 l2.78 0 l0 1.9 l-4.68 0 l0 -14.28 l4.68 0 l0 1.9 l-2.78 0 l0 2.94 l2.76 0 l0 1.9 z M159.196 20.04 l-2.04 0 l-1.1 -3.02 l-0.44 0 l0 3.02 l-1.9 0 l0 -14.32 l2.98 0 c1.32 0 2.38 1.06 2.38 2.38 l0 6.54 c0 0.86 -0.44 1.6 -1.12 2.02 z M155.616 7.619999999999999 l0 7.5 l1.08 0 c0.26 0 0.48 -0.22 0.48 -0.48 l0 -6.54 c0 -0.26 -0.22 -0.48 -0.48 -0.48 l-1.08 0 z M169.98 12.46 l-2.76 0 l0 5.64 l2.78 0 l0 1.9 l-4.68 0 l0 -14.28 l4.68 0 l0 1.9 l-2.78 0 l0 2.94 l2.76 0 l0 1.9 z M180.76399999999998 16.72 l0.08 -11.08 l1.92 0 l-0.12 14.44 l-2.98 0 l-1.62 -11.18 l0 11.18 l-1.92 0 l0 -14.44 l3.1 0 z M195.808 5.68 l0 1.92 l-2.38 0 l0 12.42 l-1.92 0 l0 -12.42 l-2.62 0 l0 -1.92 l6.92 0 z M203.812 18.12 l2.76 0 l0 1.88 l-4.64 0 l0 -14.36 l1.88 0 l0 12.48 z M218.05600000000004 5.720000000000001 l-2.68 8.68 l0 5.6 l-1.94 0 l0 -5.62 l-2.46 -8.66 l2 0 l1.46 5.14 l1.6 -5.14 l2.02 0 z"/></g>
			</g>
		</svg>
	